# xmcd CD database file
#
# Track frame offsets:
#	150
#	26884
#	46742
#	72179
#	93716
#	106907
#	124037
#	149331
#	174080
#
# Disc length: 2506 seconds
#
# Revision: 0
# Processed by: cddbd v1.5.2PL0 Copyright (c) Steve Scherf et al.
# Submitted via: CDex 1.70beta2
#
DISCID=7509c809
DTITLE=elkano browning cream - Album 1
DYEAR=2006
DGENRE=Blues
TTITLE0=Xin Jiang Woman
TTITLE1=Demons and the Bank
TTITLE2=Happy
TTITLE3=Hook as Hook
TTITLE4=Intermission
TTITLE5=16F
TTITLE6=Blame it on the Judge
TTITLE7=Pina Colada
TTITLE8=Agur Jaunak
EXTD=YEAR: 2006
EXTT0=
EXTT1=
EXTT2=
EXTT3=
EXTT4=
EXTT5=
EXTT6=
EXTT7=
EXTT8=
PLAYORDER=
